<?xml version="1.0" encoding="UTF-8" standalone="no"?>
<!DOCTYPE svg PUBLIC "-//W3C//DTD SVG 1.1//EN"
 "http://www.w3.org/Graphics/SVG/1.1/DTD/svg11.dtd">
<!-- Generated by graphviz version 2.40.1 (20161225.0304)
 -->
<!-- Title: G Pages: 1 -->
<svg width="121pt" height="274pt"
 viewBox="0.00 0.00 121.00 274.00" xmlns="http://www.w3.org/2000/svg" xmlns:xlink="http://www.w3.org/1999/xlink">
<g id="graph0" class="graph" transform="scale(1 1) rotate(0) translate(4 270)">
<title>G</title>
<polygon fill="#ffffff" stroke="transparent" points="-4,4 -4,-270 117,-270 117,4 -4,4"/>
<!-- A0 -->
<g id="node1" class="node">
<title>A0</title>
<polygon fill="none" stroke="#000000" points="2.5,-234 2.5,-266 111.5,-266 111.5,-234 2.5,-234"/>
<text text-anchor="start" x="33.528" y="-247" font-family="Helvetica,sans-Serif" font-size="10.00" fill="#000000">+MyClass </text>
<polygon fill="none" stroke="#000000" points="2.5,-202 2.5,-234 111.5,-234 111.5,-202 2.5,-202"/>
<text text-anchor="start" x="19.223" y="-215" font-family="Helvetica,sans-Serif" font-size="10.00" fill="#000000"> &#45;myString:string </text>
<polygon fill="none" stroke="#000000" points="2.5,-146 2.5,-202 111.5,-202 111.5,-146 2.5,-146"/>
<text text-anchor="start" x="27.9705" y="-183" font-family="Helvetica,sans-Serif" font-size="10.00" fill="#000000"> +MyString:w</text>
<text text-anchor="start" x="12.1345" y="-159" font-family="Helvetica,sans-Serif" font-size="10.00" fill="#000000">+GetString():string:v</text>
</g>
<!-- A1 -->
<g id="node2" class="node">
<title>A1</title>
<polygon fill="none" stroke="#000000" points=".5,-64 .5,-96 113.5,-96 113.5,-64 .5,-64"/>
<text text-anchor="start" x="16.306" y="-77" font-family="Helvetica,sans-Serif" font-size="10.00" fill="#000000">+MyDerivedClass </text>
<polygon fill="none" stroke="#000000" points=".5,-32 .5,-64 113.5,-64 113.5,-32 .5,-32"/>
<text text-anchor="start" x="55.6105" y="-45" font-family="Helvetica,sans-Serif" font-size="10.00" fill="#000000"> </text>
<polygon fill="none" stroke="#000000" points=".5,0 .5,-32 113.5,-32 113.5,0 .5,0"/>
<text text-anchor="start" x="10.4655" y="-13" font-family="Helvetica,sans-Serif" font-size="10.00" fill="#000000"> +GetString():string:o</text>
</g>
<!-- A0&#45;&gt;A1 -->
<g id="edge1" class="edge">
<title>A0&#45;&gt;A1</title>
<path fill="none" stroke="#000000" d="M56.5,-135.7089C56.5,-122.3728 56.5,-108.7015 56.5,-96.2402"/>
<polygon fill="#000000" stroke="#000000" points="56.5,-145.8162 52.0001,-135.8162 56.5,-140.8162 56.5001,-135.8162 56.5001,-135.8162 56.5001,-135.8162 56.5,-140.8162 61.0001,-135.8163 56.5,-145.8162 56.5,-145.8162"/>
</g>
</g>
</svg>
