<?xml version="1.0" encoding="UTF-8" standalone="no"?>
<!DOCTYPE svg PUBLIC "-//W3C//DTD SVG 1.1//EN"
 "http://www.w3.org/Graphics/SVG/1.1/DTD/svg11.dtd">
<!-- Generated by graphviz version 2.40.1 (20161225.0304)
 -->
<!-- Title: G Pages: 1 -->
<svg width="346pt" height="322pt"
 viewBox="0.00 0.00 346.00 322.00" xmlns="http://www.w3.org/2000/svg" xmlns:xlink="http://www.w3.org/1999/xlink">
<g id="graph0" class="graph" transform="scale(1 1) rotate(0) translate(4 318)">
<title>G</title>
<polygon fill="#ffffff" stroke="transparent" points="-4,4 -4,-318 342,-318 342,4 -4,4"/>
<!-- A0 -->
<g id="node1" class="node">
<title>A0</title>
<polygon fill="none" stroke="#000000" points="31.5,-60 31.5,-92 108.5,-92 108.5,-60 31.5,-60"/>
<text text-anchor="start" x="41.2455" y="-73" font-family="Helvetica,sans-Serif" font-size="10.00" fill="#000000">+I:ICustomer</text>
<polygon fill="none" stroke="#000000" points="31.5,-28 31.5,-60 108.5,-60 108.5,-28 31.5,-28"/>
<text text-anchor="start" x="54.1685" y="-41" font-family="Helvetica,sans-Serif" font-size="10.00" fill="#000000">Greet()</text>
</g>
<!-- A1 -->
<g id="node2" class="node">
<title>A1</title>
<polygon fill="none" stroke="#000000" points="189.5,-88 189.5,-120 338.5,-120 338.5,-88 189.5,-88"/>
<text text-anchor="start" x="239.414" y="-101" font-family="Helvetica,sans-Serif" font-size="10.00" fill="#000000">+Customer</text>
<polygon fill="none" stroke="#000000" points="189.5,-44 189.5,-88 338.5,-88 338.5,-44 189.5,-44"/>
<text text-anchor="start" x="234.9655" y="-69" font-family="Helvetica,sans-Serif" font-size="10.00" fill="#000000">+name:string</text>
<text text-anchor="start" x="207.891" y="-57" font-family="Helvetica,sans-Serif" font-size="10.00" fill="#000000">&#45;creditCardNumber:string</text>
<polygon fill="none" stroke="#000000" points="189.5,0 189.5,-44 338.5,-44 338.5,0 189.5,0"/>
<text text-anchor="start" x="199.138" y="-25" font-family="Helvetica,sans-Serif" font-size="10.00" fill="#000000"> +CreditCardNumber:string:w</text>
<text text-anchor="start" x="243.8595" y="-13" font-family="Helvetica,sans-Serif" font-size="10.00" fill="#000000"> +Greet()</text>
</g>
<!-- A0&#45;&gt;A1 -->
<g id="edge1" class="edge">
<title>A0&#45;&gt;A1</title>
<path fill="none" stroke="#000000" d="M118.3803,-60C139.6598,-60 165.0772,-60 188.6506,-60"/>
<polygon fill="none" stroke="#000000" points="118.2926,-56.5001 108.2925,-60 118.2925,-63.5001 118.2926,-56.5001"/>
</g>
<!-- A2 -->
<g id="node3" class="node">
<title>A2</title>
<polygon fill="none" stroke="#000000" points=".5,-282 .5,-314 139.5,-314 139.5,-282 .5,-282"/>
<text text-anchor="start" x="42.915" y="-295" font-family="Helvetica,sans-Serif" font-size="10.00" fill="#000000">+A:HotDrink</text>
<polygon fill="none" stroke="#000000" points=".5,-190 .5,-282 139.5,-282 139.5,-190 .5,-190"/>
<text text-anchor="start" x="41.516" y="-263" font-family="Helvetica,sans-Serif" font-size="10.00" fill="#000000">+instant:bool</text>
<text text-anchor="start" x="47.3595" y="-251" font-family="Helvetica,sans-Serif" font-size="10.00" fill="#000000">+milk:bool</text>
<text text-anchor="start" x="44.9945" y="-239" font-family="Helvetica,sans-Serif" font-size="10.00" fill="#000000">&#45;sugar:byte</text>
<text text-anchor="start" x="40.686" y="-227" font-family="Helvetica,sans-Serif" font-size="10.00" fill="#000000">+brand:string</text>
<text text-anchor="start" x="44.5795" y="-215" font-family="Helvetica,sans-Serif" font-size="10.00" fill="#000000">+size:string</text>
<text text-anchor="start" x="23.4675" y="-203" font-family="Helvetica,sans-Serif" font-size="10.00" fill="#000000">+customer:Customer</text>
<polygon fill="none" stroke="#000000" points=".5,-146 .5,-190 139.5,-190 139.5,-146 .5,-146"/>
<text text-anchor="start" x="10.121" y="-171" font-family="Helvetica,sans-Serif" font-size="10.00" fill="#000000">+AddSugar(amount:byte):v</text>
<text text-anchor="start" x="45.135" y="-159" font-family="Helvetica,sans-Serif" font-size="10.00" fill="#000000">+Steam():a</text>
<polygon fill="none" stroke="#000000" points=".5,-114 .5,-146 139.5,-146 139.5,-114 .5,-114"/>
<text text-anchor="start" x="36.9475" y="-127" font-family="Helvetica,sans-Serif" font-size="10.00" fill="#000000">()(brand:string)</text>
</g>
<!-- A3 -->
<g id="node4" class="node">
<title>A3</title>
<polygon fill="none" stroke="#000000" points="195.5,-258 195.5,-290 331.5,-290 331.5,-258 195.5,-258"/>
<text text-anchor="start" x="231.406" y="-271" font-family="Helvetica,sans-Serif" font-size="10.00" fill="#000000">+CupOfCoffee</text>
<polygon fill="none" stroke="#000000" points="195.5,-226 195.5,-258 331.5,-258 331.5,-226 195.5,-226"/>
<text text-anchor="start" x="224.737" y="-239" font-family="Helvetica,sans-Serif" font-size="10.00" fill="#000000">+beanType:string</text>
<polygon fill="none" stroke="#000000" points="195.5,-194 195.5,-226 331.5,-226 331.5,-194 195.5,-194"/>
<text text-anchor="start" x="238.635" y="-207" font-family="Helvetica,sans-Serif" font-size="10.00" fill="#000000">+Steam():o</text>
<polygon fill="none" stroke="#000000" points="195.5,-138 195.5,-194 331.5,-194 331.5,-138 195.5,-138"/>
<text text-anchor="start" x="260.171" y="-175" font-family="Helvetica,sans-Serif" font-size="10.00" fill="#000000">()</text>
<text text-anchor="start" x="205.437" y="-151" font-family="Helvetica,sans-Serif" font-size="10.00" fill="#000000">(brand:string):base(brand)</text>
</g>
<!-- A2&#45;&gt;A3 -->
<g id="edge2" class="edge">
<title>A2&#45;&gt;A3</title>
<path fill="none" stroke="#000000" stroke-dasharray="5,2" d="M149.6584,-214C164.8303,-214 180.5693,-214 195.3288,-214"/>
<polygon fill="#000000" stroke="#000000" points="139.2644,-214 149.2644,-209.5001 144.2644,-214 149.2644,-214.0001 149.2644,-214.0001 149.2644,-214.0001 144.2644,-214 149.2643,-218.5001 139.2644,-214 139.2644,-214"/>
</g>
</g>
</svg>
