<?xml version="1.0" encoding="UTF-8" standalone="no"?>
<!DOCTYPE svg PUBLIC "-//W3C//DTD SVG 1.1//EN"
 "http://www.w3.org/Graphics/SVG/1.1/DTD/svg11.dtd">
<!-- Generated by graphviz version 2.40.1 (20161225.0304)
 -->
<!-- Title: G Pages: 1 -->
<svg width="172pt" height="362pt"
 viewBox="0.00 0.00 171.50 362.00" xmlns="http://www.w3.org/2000/svg" xmlns:xlink="http://www.w3.org/1999/xlink">
<g id="graph0" class="graph" transform="scale(1 1) rotate(0) translate(4 358)">
<title>G</title>
<polygon fill="#ffffff" stroke="transparent" points="-4,4 -4,-358 167.5,-358 167.5,4 -4,4"/>
<!-- A0 -->
<g id="node1" class="node">
<title>A0</title>
<polygon fill="none" stroke="#000000" points="3,-322 3,-354 79,-354 79,-322 3,-322"/>
<text text-anchor="start" x="16.8345" y="-335" font-family="Helvetica,sans-Serif" font-size="10.00" fill="#000000">A:HotDrink</text>
<polygon fill="none" stroke="#000000" points="3,-302 3,-322 79,-322 79,-302 3,-302"/>
<polygon fill="none" stroke="#000000" points="3,-222 3,-302 79,-302 79,-222 3,-222"/>
<text text-anchor="start" x="23.0885" y="-283" font-family="Helvetica,sans-Serif" font-size="10.00" fill="#000000">+Drink()</text>
<text text-anchor="start" x="16.9745" y="-271" font-family="Helvetica,sans-Serif" font-size="10.00" fill="#000000">+AddMilk()</text>
<text text-anchor="start" x="12.5205" y="-259" font-family="Helvetica,sans-Serif" font-size="10.00" fill="#000000">+AddSugar()</text>
<text text-anchor="start" x="29.197" y="-247" font-family="Helvetica,sans-Serif" font-size="10.00" fill="#000000">+Milk</text>
<text text-anchor="start" x="24.743" y="-235" font-family="Helvetica,sans-Serif" font-size="10.00" fill="#000000">+Sugar</text>
<polygon fill="none" stroke="#000000" points="3,-202 3,-222 79,-222 79,-202 3,-202"/>
</g>
<!-- A2 -->
<g id="node3" class="node">
<title>A2</title>
<polygon fill="none" stroke="#000000" points="0,-120 0,-152 78,-152 78,-120 0,-120"/>
<text text-anchor="start" x="9.8255" y="-133" font-family="Helvetica,sans-Serif" font-size="10.00" fill="#000000">CupOfCoffee</text>
<polygon fill="none" stroke="#000000" points="0,-100 0,-120 78,-120 78,-100 0,-100"/>
<polygon fill="none" stroke="#000000" points="0,-20 0,-100 78,-100 78,-20 0,-20"/>
<text text-anchor="start" x="21.6445" y="-81" font-family="Helvetica,sans-Serif" font-size="10.00" fill="#000000">+Refill()</text>
<text text-anchor="start" x="19.973" y="-69" font-family="Helvetica,sans-Serif" font-size="10.00" fill="#000000">+Wash()</text>
<text text-anchor="start" x="24.138" y="-57" font-family="Helvetica,sans-Serif" font-size="10.00" fill="#000000">+Color</text>
<text text-anchor="start" x="19.1335" y="-45" font-family="Helvetica,sans-Serif" font-size="10.00" fill="#000000">+Volume</text>
<text text-anchor="start" x="13.294" y="-33" font-family="Helvetica,sans-Serif" font-size="10.00" fill="#000000">+BeanType</text>
<polygon fill="none" stroke="#000000" points="0,0 0,-20 78,-20 78,0 0,0"/>
</g>
<!-- A0&#45;&gt;A2 -->
<g id="edge1" class="edge">
<title>A0&#45;&gt;A2</title>
<path fill="none" stroke="#000000" stroke-dasharray="5,2" d="M40.1472,-191.8711C40.016,-178.6204 39.8814,-165.0207 39.7526,-152.0111"/>
<polygon fill="#000000" stroke="#000000" points="40.2467,-201.9203 35.6479,-191.9654 40.1972,-196.9205 40.1476,-191.9208 40.1476,-191.9208 40.1476,-191.9208 40.1972,-196.9205 44.6474,-191.8762 40.2467,-201.9203 40.2467,-201.9203"/>
</g>
<!-- A3 -->
<g id="node4" class="node">
<title>A3</title>
<polygon fill="none" stroke="#000000" points="97,-120 97,-152 164,-152 164,-120 97,-120"/>
<text text-anchor="start" x="107.439" y="-133" font-family="Helvetica,sans-Serif" font-size="10.00" fill="#000000">CupOfTea</text>
<polygon fill="none" stroke="#000000" points="97,-100 97,-120 164,-120 164,-100 97,-100"/>
<polygon fill="none" stroke="#000000" points="97,-20 97,-100 164,-100 164,-20 97,-20"/>
<text text-anchor="start" x="113.1445" y="-81" font-family="Helvetica,sans-Serif" font-size="10.00" fill="#000000">+Refill()</text>
<text text-anchor="start" x="111.473" y="-69" font-family="Helvetica,sans-Serif" font-size="10.00" fill="#000000">+Wash()</text>
<text text-anchor="start" x="115.638" y="-57" font-family="Helvetica,sans-Serif" font-size="10.00" fill="#000000">+Color</text>
<text text-anchor="start" x="110.6335" y="-45" font-family="Helvetica,sans-Serif" font-size="10.00" fill="#000000">+Volume</text>
<text text-anchor="start" x="106.739" y="-33" font-family="Helvetica,sans-Serif" font-size="10.00" fill="#000000">+LeafType</text>
<polygon fill="none" stroke="#000000" points="97,0 97,-20 164,-20 164,0 97,0"/>
</g>
<!-- A0&#45;&gt;A3 -->
<g id="edge3" class="edge">
<title>A0&#45;&gt;A3</title>
<path fill="none" stroke="#000000" stroke-dasharray="5,2" d="M78.6047,-192.6501C84.551,-179.154 90.6656,-165.2758 96.5099,-152.0111"/>
<polygon fill="#000000" stroke="#000000" points="74.5203,-201.9203 74.4342,-190.9547 76.5363,-197.3447 78.5523,-192.7691 78.5523,-192.7691 78.5523,-192.7691 76.5363,-197.3447 82.6703,-194.5835 74.5203,-201.9203 74.5203,-201.9203"/>
</g>
<!-- A1 -->
<g id="node2" class="node">
<title>A1</title>
<polygon fill="none" stroke="#000000" points="99,-296 99,-328 158,-328 158,-296 99,-296"/>
<text text-anchor="start" x="113.7735" y="-309" font-family="Helvetica,sans-Serif" font-size="10.00" fill="#000000">I:ICup </text>
<polygon fill="none" stroke="#000000" points="99,-228 99,-296 158,-296 158,-228 99,-228"/>
<text text-anchor="start" x="109.755" y="-277" font-family="Helvetica,sans-Serif" font-size="10.00" fill="#000000"> +Refill()</text>
<text text-anchor="start" x="109.473" y="-265" font-family="Helvetica,sans-Serif" font-size="10.00" fill="#000000">+Wash()</text>
<text text-anchor="start" x="113.638" y="-253" font-family="Helvetica,sans-Serif" font-size="10.00" fill="#000000">+Color</text>
<text text-anchor="start" x="108.6335" y="-241" font-family="Helvetica,sans-Serif" font-size="10.00" fill="#000000">+Volume</text>
</g>
<!-- A1&#45;&gt;A2 -->
<g id="edge2" class="edge">
<title>A1&#45;&gt;A2</title>
<path fill="none" stroke="#000000" d="M101.7841,-218.4988C92.6513,-197.7704 82.2748,-174.2192 72.625,-152.3175"/>
<polygon fill="none" stroke="#000000" points="98.6507,-220.0679 105.8856,-227.8079 105.0566,-217.2455 98.6507,-220.0679"/>
</g>
<!-- A1&#45;&gt;A3 -->
<g id="edge4" class="edge">
<title>A1&#45;&gt;A3</title>
<path fill="none" stroke="#000000" d="M128.5975,-217.6569C128.8007,-197.1342 129.0305,-173.9232 129.2444,-152.3175"/>
<polygon fill="none" stroke="#000000" points="125.0962,-217.7737 128.497,-227.8079 132.0959,-217.8431 125.0962,-217.7737"/>
</g>
</g>
</svg>
