<?xml version="1.0" encoding="UTF-8" standalone="no"?>
<!DOCTYPE svg PUBLIC "-//W3C//DTD SVG 1.1//EN"
 "http://www.w3.org/Graphics/SVG/1.1/DTD/svg11.dtd">
<!-- Generated by graphviz version 2.40.1 (20161225.0304)
 -->
<!-- Title: G Pages: 1 -->
<svg width="257pt" height="528pt"
 viewBox="0.00 0.00 257.00 528.00" xmlns="http://www.w3.org/2000/svg" xmlns:xlink="http://www.w3.org/1999/xlink">
<g id="graph0" class="graph" transform="scale(1 1) rotate(0) translate(4 524)">
<title>G</title>
<polygon fill="#ffffff" stroke="transparent" points="-4,4 -4,-524 253,-524 253,4 -4,4"/>
<!-- A0 -->
<g id="node1" class="node">
<title>A0</title>
<polygon fill="none" stroke="#000000" points="8.5,-488 8.5,-520 128.5,-520 128.5,-488 8.5,-488"/>
<text text-anchor="start" x="45.0145" y="-501" font-family="Helvetica,sans-Serif" font-size="10.00" fill="#000000">+A:Phone </text>
<polygon fill="none" stroke="#000000" points="8.5,-444 8.5,-488 128.5,-488 128.5,-444 8.5,-444"/>
<text text-anchor="start" x="20.1595" y="-469" font-family="Helvetica,sans-Serif" font-size="10.00" fill="#000000"> &#45;phoneNumber:string</text>
<text text-anchor="start" x="31.407" y="-457" font-family="Helvetica,sans-Serif" font-size="10.00" fill="#000000"> +address:string </text>
<polygon fill="none" stroke="#000000" points="8.5,-388 8.5,-444 128.5,-444 128.5,-388 8.5,-388"/>
<text text-anchor="start" x="18.3495" y="-425" font-family="Helvetica,sans-Serif" font-size="10.00" fill="#000000"> +PhoneNumber:string</text>
<text text-anchor="start" x="38.076" y="-413" font-family="Helvetica,sans-Serif" font-size="10.00" fill="#000000"> +Connect():a</text>
<text text-anchor="start" x="31.9665" y="-401" font-family="Helvetica,sans-Serif" font-size="10.00" fill="#000000"> +Disconnect():a</text>
</g>
<!-- A2 -->
<g id="node3" class="node">
<title>A2</title>
<polygon fill="none" stroke="#000000" points="28.5,-306 28.5,-338 118.5,-338 118.5,-306 28.5,-306"/>
<text text-anchor="start" x="40.016" y="-319" font-family="Helvetica,sans-Serif" font-size="10.00" fill="#000000">+RotaryPhone </text>
<polygon fill="none" stroke="#000000" points="28.5,-286 28.5,-306 118.5,-306 118.5,-286 28.5,-286"/>
<polygon fill="none" stroke="#000000" points="28.5,-206 28.5,-286 118.5,-286 118.5,-206 28.5,-206"/>
<text text-anchor="start" x="49.1945" y="-267" font-family="Helvetica,sans-Serif" font-size="10.00" fill="#000000"> +Answer()</text>
<text text-anchor="start" x="46.42" y="-255" font-family="Helvetica,sans-Serif" font-size="10.00" fill="#000000">+MakeCall()</text>
<text text-anchor="start" x="48.9145" y="-243" font-family="Helvetica,sans-Serif" font-size="10.00" fill="#000000">+HangUp()</text>
<text text-anchor="start" x="44.4655" y="-231" font-family="Helvetica,sans-Serif" font-size="10.00" fill="#000000">+Connect():o</text>
<text text-anchor="start" x="38.356" y="-219" font-family="Helvetica,sans-Serif" font-size="10.00" fill="#000000">+Disconnect():o</text>
</g>
<!-- A0&#45;&gt;A2 -->
<g id="edge1" class="edge">
<title>A0&#45;&gt;A2</title>
<path fill="none" stroke="#000000" stroke-dasharray="5,2" d="M70.6038,-377.4231C70.9622,-364.3752 71.3318,-350.9214 71.6821,-338.1717"/>
<polygon fill="#000000" stroke="#000000" points="70.3193,-387.779 66.0957,-377.6591 70.4566,-382.7809 70.594,-377.7827 70.594,-377.7827 70.594,-377.7827 70.4566,-382.7809 75.0923,-377.9064 70.3193,-387.779 70.3193,-387.779"/>
</g>
<!-- A3 -->
<g id="node4" class="node">
<title>A3</title>
<polygon fill="none" stroke="#000000" points="140.5,-306 140.5,-338 249.5,-338 249.5,-306 140.5,-306"/>
<text text-anchor="start" x="150.393" y="-319" font-family="Helvetica,sans-Serif" font-size="10.00" fill="#000000">+PushButtonPhone </text>
<polygon fill="none" stroke="#000000" points="140.5,-286 140.5,-306 249.5,-306 249.5,-286 140.5,-286"/>
<polygon fill="none" stroke="#000000" points="140.5,-206 140.5,-286 249.5,-286 249.5,-206 140.5,-206"/>
<text text-anchor="start" x="170.6945" y="-267" font-family="Helvetica,sans-Serif" font-size="10.00" fill="#000000"> +Answer()</text>
<text text-anchor="start" x="167.92" y="-255" font-family="Helvetica,sans-Serif" font-size="10.00" fill="#000000">+MakeCall()</text>
<text text-anchor="start" x="170.4145" y="-243" font-family="Helvetica,sans-Serif" font-size="10.00" fill="#000000">+HangUp()</text>
<text text-anchor="start" x="165.9655" y="-231" font-family="Helvetica,sans-Serif" font-size="10.00" fill="#000000">+Connect():o</text>
<text text-anchor="start" x="159.856" y="-219" font-family="Helvetica,sans-Serif" font-size="10.00" fill="#000000">+Disconnect():o</text>
</g>
<!-- A0&#45;&gt;A3 -->
<g id="edge2" class="edge">
<title>A0&#45;&gt;A3</title>
<path fill="none" stroke="#000000" stroke-dasharray="5,2" d="M120.1754,-379.3578C129.6245,-365.709 139.4251,-351.5526 148.6888,-338.1717"/>
<polygon fill="#000000" stroke="#000000" points="114.3453,-387.779 116.3376,-376.9956 117.1914,-383.668 120.0375,-379.557 120.0375,-379.557 120.0375,-379.557 117.1914,-383.668 123.7373,-382.1185 114.3453,-387.779 114.3453,-387.779"/>
</g>
<!-- A1 -->
<g id="node2" class="node">
<title>A1</title>
<polygon fill="none" stroke="#000000" points="147.5,-466 147.5,-498 248.5,-498 248.5,-466 147.5,-466"/>
<text text-anchor="start" x="157.0085" y="-479" font-family="Helvetica,sans-Serif" font-size="10.00" fill="#000000">+I:PhoneInterface </text>
<polygon fill="none" stroke="#000000" points="147.5,-410 147.5,-466 248.5,-466 248.5,-410 147.5,-410"/>
<text text-anchor="start" x="176.614" y="-447" font-family="Helvetica,sans-Serif" font-size="10.00" fill="#000000"> Answer()</text>
<text text-anchor="start" x="173.8395" y="-435" font-family="Helvetica,sans-Serif" font-size="10.00" fill="#000000">MakeCall()</text>
<text text-anchor="start" x="176.334" y="-423" font-family="Helvetica,sans-Serif" font-size="10.00" fill="#000000">HangUp()</text>
</g>
<!-- A1&#45;&gt;A2 -->
<g id="edge3" class="edge">
<title>A1&#45;&gt;A2</title>
<path fill="none" stroke="#000000" d="M161.828,-401.6427C148.3175,-381.8128 132.7586,-358.9763 118.4997,-338.048"/>
<polygon fill="none" stroke="#000000" points="158.96,-403.6494 167.4831,-409.9429 164.7449,-399.708 158.96,-403.6494"/>
</g>
<!-- A1&#45;&gt;A3 -->
<g id="edge4" class="edge">
<title>A1&#45;&gt;A3</title>
<path fill="none" stroke="#000000" d="M196.6062,-399.775C196.2866,-380.3874 195.9229,-358.3223 195.5887,-338.048"/>
<polygon fill="none" stroke="#000000" points="193.1093,-400.002 196.7738,-409.9429 200.1084,-399.8865 193.1093,-400.002"/>
</g>
<!-- A4 -->
<g id="node5" class="node">
<title>A4</title>
<polygon fill="none" stroke="#000000" points=".5,-124 .5,-156 147.5,-156 147.5,-124 .5,-124"/>
<text text-anchor="start" x="55.8035" y="-137" font-family="Helvetica,sans-Serif" font-size="10.00" fill="#000000">+Tardis </text>
<polygon fill="none" stroke="#000000" points=".5,-44 .5,-124 147.5,-124 147.5,-44 .5,-44"/>
<text text-anchor="start" x="23.444" y="-105" font-family="Helvetica,sans-Serif" font-size="10.00" fill="#000000">&#45;sonicScrewdriver:bool</text>
<text text-anchor="start" x="33.167" y="-93" font-family="Helvetica,sans-Serif" font-size="10.00" fill="#000000">&#45;whichDrWho:byte</text>
<text text-anchor="start" x="25.109" y="-81" font-family="Helvetica,sans-Serif" font-size="10.00" fill="#000000">&#45;femaleSidekick:string</text>
<text text-anchor="start" x="10.2325" y="-69" font-family="Helvetica,sans-Serif" font-size="10.00" fill="#000000">+exteriorSurfaceArea:double</text>
<text text-anchor="start" x="22.461" y="-57" font-family="Helvetica,sans-Serif" font-size="10.00" fill="#000000">+interiorVolume:double</text>
<polygon fill="none" stroke="#000000" points=".5,0 .5,-44 147.5,-44 147.5,0 .5,0"/>
<text text-anchor="start" x="26.3585" y="-25" font-family="Helvetica,sans-Serif" font-size="10.00" fill="#000000"> +WhichDrWho:byte:r</text>
<text text-anchor="start" x="51.079" y="-13" font-family="Helvetica,sans-Serif" font-size="10.00" fill="#000000">+FemaleS</text>
</g>
<!-- A2&#45;&gt;A4 -->
<g id="edge5" class="edge">
<title>A2&#45;&gt;A4</title>
<path fill="none" stroke="#000000" d="M73.5,-195.5608C73.5,-182.6608 73.5,-169.2522 73.5,-156.3055"/>
<polygon fill="#000000" stroke="#000000" points="73.5,-205.7788 69.0001,-195.7788 73.5,-200.7788 73.5001,-195.7788 73.5001,-195.7788 73.5001,-195.7788 73.5,-200.7788 78.0001,-195.7788 73.5,-205.7788 73.5,-205.7788"/>
</g>
</g>
</svg>
