<?xml version="1.0" encoding="UTF-8" standalone="no"?>
<!DOCTYPE svg PUBLIC "-//W3C//DTD SVG 1.1//EN"
 "http://www.w3.org/Graphics/SVG/1.1/DTD/svg11.dtd">
<!-- Generated by graphviz version 2.40.1 (20161225.0304)
 -->
<!-- Title: G Pages: 1 -->
<svg width="297pt" height="424pt"
 viewBox="0.00 0.00 297.00 424.00" xmlns="http://www.w3.org/2000/svg" xmlns:xlink="http://www.w3.org/1999/xlink">
<g id="graph0" class="graph" transform="scale(1 1) rotate(0) translate(4 420)">
<title>G</title>
<polygon fill="#ffffff" stroke="transparent" points="-4,4 -4,-420 293,-420 293,4 -4,4"/>
<!-- A0 -->
<g id="node1" class="node">
<title>A0</title>
<polygon fill="none" stroke="#000000" points=".5,-384 .5,-416 139.5,-416 139.5,-384 .5,-384"/>
<text text-anchor="start" x="40.96" y="-397" font-family="Helvetica,sans-Serif" font-size="10.00" fill="#000000">+A:Beverage</text>
<polygon fill="none" stroke="#000000" points=".5,-316 .5,-384 139.5,-384 139.5,-316 .5,-316"/>
<text text-anchor="start" x="22.07" y="-365" font-family="Helvetica,sans-Serif" font-size="10.00" fill="#000000">+temprerature:double</text>
<text text-anchor="start" x="43.19" y="-353" font-family="Helvetica,sans-Serif" font-size="10.00" fill="#000000"> +size:string</text>
<text text-anchor="start" x="29.8475" y="-341" font-family="Helvetica,sans-Serif" font-size="10.00" fill="#000000"> +homemade:bool</text>
<text text-anchor="start" x="15.816" y="-329" font-family="Helvetica,sans-Serif" font-size="10.00" fill="#000000"> &#45;caffeineAmount:double</text>
<polygon fill="none" stroke="#000000" points=".5,-260 .5,-316 139.5,-316 139.5,-260 .5,-260"/>
<text text-anchor="start" x="10.3975" y="-297" font-family="Helvetica,sans-Serif" font-size="10.00" fill="#000000"> +CaffeineAmount:double:r</text>
<text text-anchor="start" x="48.1945" y="-285" font-family="Helvetica,sans-Serif" font-size="10.00" fill="#000000">+Brew():a</text>
<text text-anchor="start" x="40.4155" y="-273" font-family="Helvetica,sans-Serif" font-size="10.00" fill="#000000">+GetPrice():v</text>
</g>
<!-- A3 -->
<g id="node4" class="node">
<title>A3</title>
<polygon fill="none" stroke="#000000" points="189,-354 189,-386 289,-386 289,-354 189,-354"/>
<text text-anchor="start" x="227.467" y="-367" font-family="Helvetica,sans-Serif" font-size="10.00" fill="#000000">+Tea</text>
<polygon fill="none" stroke="#000000" points="189,-310 189,-354 289,-354 289,-310 189,-310"/>
<text text-anchor="start" x="213.3" y="-335" font-family="Helvetica,sans-Serif" font-size="10.00" fill="#000000">+kind:string</text>
<text text-anchor="start" x="205.237" y="-323" font-family="Helvetica,sans-Serif" font-size="10.00" fill="#000000">+looseleaf:bool</text>
<polygon fill="none" stroke="#000000" points="189,-206 189,-310 289,-310 289,-206 189,-206"/>
<text text-anchor="start" x="219.974" y="-291" font-family="Helvetica,sans-Serif" font-size="10.00" fill="#000000"> +Brew()</text>
<text text-anchor="start" x="209.136" y="-279" font-family="Helvetica,sans-Serif" font-size="10.00" fill="#000000">+GetPrice():o</text>
<text text-anchor="start" x="209.6965" y="-267" font-family="Helvetica,sans-Serif" font-size="10.00" fill="#000000"> +BoilWater()</text>
<text text-anchor="start" x="202.742" y="-255" font-family="Helvetica,sans-Serif" font-size="10.00" fill="#000000"> &#160;+ChooseKind()</text>
<text text-anchor="start" x="213.58" y="-243" font-family="Helvetica,sans-Serif" font-size="10.00" fill="#000000"> +GetMug()</text>
<text text-anchor="start" x="215.7995" y="-231" font-family="Helvetica,sans-Serif" font-size="10.00" fill="#000000"> +AddIce()</text>
<text text-anchor="start" x="198.858" y="-219" font-family="Helvetica,sans-Serif" font-size="10.00" fill="#000000"> +UseStraw():bool</text>
</g>
<!-- A0&#45;&gt;A3 -->
<g id="edge1" class="edge">
<title>A0&#45;&gt;A3</title>
<path fill="none" stroke="#000000" stroke-dasharray="5,2" d="M149.2154,-318.2475C162.7356,-314.8974 176.4272,-311.5048 188.9075,-308.4123"/>
<polygon fill="#000000" stroke="#000000" points="139.4207,-320.6745 148.0448,-313.9014 144.274,-319.4719 149.1272,-318.2693 149.1272,-318.2693 149.1272,-318.2693 144.274,-319.4719 150.2095,-322.6372 139.4207,-320.6745 139.4207,-320.6745"/>
</g>
<!-- A4 -->
<g id="node5" class="node">
<title>A4</title>
<polygon fill="none" stroke="#000000" points="189,-156 189,-188 289,-188 289,-156 189,-156"/>
<text text-anchor="start" x="221.3535" y="-169" font-family="Helvetica,sans-Serif" font-size="10.00" fill="#000000">+Coffee</text>
<polygon fill="none" stroke="#000000" points="189,-112 189,-156 289,-156 289,-112 189,-112"/>
<text text-anchor="start" x="211.3555" y="-137" font-family="Helvetica,sans-Serif" font-size="10.00" fill="#000000">+roast:string</text>
<text text-anchor="start" x="210.2465" y="-125" font-family="Helvetica,sans-Serif" font-size="10.00" fill="#000000">+origin:string</text>
<polygon fill="none" stroke="#000000" points="189,-8 189,-112 289,-112 289,-8 189,-8"/>
<text text-anchor="start" x="219.974" y="-93" font-family="Helvetica,sans-Serif" font-size="10.00" fill="#000000"> +Brew()</text>
<text text-anchor="start" x="209.136" y="-81" font-family="Helvetica,sans-Serif" font-size="10.00" fill="#000000">+GetPrice():o</text>
<text text-anchor="start" x="209.6965" y="-69" font-family="Helvetica,sans-Serif" font-size="10.00" fill="#000000"> +BoilWater()</text>
<text text-anchor="start" x="204.1315" y="-57" font-family="Helvetica,sans-Serif" font-size="10.00" fill="#000000"> +ChooseKind()</text>
<text text-anchor="start" x="213.58" y="-45" font-family="Helvetica,sans-Serif" font-size="10.00" fill="#000000"> +GetMug()</text>
<text text-anchor="start" x="215.7995" y="-33" font-family="Helvetica,sans-Serif" font-size="10.00" fill="#000000"> +AddIce()</text>
<text text-anchor="start" x="198.858" y="-21" font-family="Helvetica,sans-Serif" font-size="10.00" fill="#000000"> +UseStraw():bool</text>
</g>
<!-- A0&#45;&gt;A4 -->
<g id="edge4" class="edge">
<title>A0&#45;&gt;A4</title>
<path fill="none" stroke="#000000" stroke-dasharray="5,2" d="M138.8086,-251.2644C138.8724,-251.1762 138.9362,-251.0881 139,-251 155.8372,-227.7353 173.2672,-201.7985 188.7669,-177.9864"/>
<polygon fill="#000000" stroke="#000000" points="132.7275,-259.5393 135.0231,-248.8164 135.6884,-255.5102 138.6493,-251.4811 138.6493,-251.4811 138.6493,-251.4811 135.6884,-255.5102 142.2755,-254.1459 132.7275,-259.5393 132.7275,-259.5393"/>
</g>
<!-- A1 -->
<g id="node2" class="node">
<title>A1</title>
<polygon fill="none" stroke="#000000" points="26.5,-210 26.5,-242 112.5,-242 112.5,-210 26.5,-210"/>
<text text-anchor="start" x="54.6335" y="-223" font-family="Helvetica,sans-Serif" font-size="10.00" fill="#000000">+I:IHot</text>
<polygon fill="none" stroke="#000000" points="26.5,-130 26.5,-210 112.5,-210 112.5,-130 26.5,-130"/>
<text text-anchor="start" x="36.021" y="-191" font-family="Helvetica,sans-Serif" font-size="10.00" fill="#000000">+ChooseKind()</text>
<text text-anchor="start" x="41.586" y="-167" font-family="Helvetica,sans-Serif" font-size="10.00" fill="#000000">+BoilWater()</text>
<text text-anchor="start" x="45.4695" y="-143" font-family="Helvetica,sans-Serif" font-size="10.00" fill="#000000">+GetMug()</text>
</g>
<!-- A1&#45;&gt;A3 -->
<g id="edge2" class="edge">
<title>A1&#45;&gt;A3</title>
<path fill="none" stroke="#000000" d="M121.381,-219.6691C142.8607,-233.6087 167.6736,-249.7115 188.9566,-263.5235"/>
<polygon fill="none" stroke="#000000" points="123.0043,-216.5502 112.7106,-214.0423 119.1936,-222.422 123.0043,-216.5502"/>
</g>
<!-- A1&#45;&gt;A4 -->
<g id="edge5" class="edge">
<title>A1&#45;&gt;A4</title>
<path fill="none" stroke="#000000" d="M121.6676,-158.9159C143.0812,-147.7986 167.7682,-134.9817 188.9566,-123.9812"/>
<polygon fill="none" stroke="#000000" points="119.973,-155.8521 112.7106,-163.5662 123.1985,-162.0647 119.973,-155.8521"/>
</g>
<!-- A2 -->
<g id="node3" class="node">
<title>A2</title>
<polygon fill="none" stroke="#000000" points="21.5,-80 21.5,-112 118.5,-112 118.5,-80 21.5,-80"/>
<text text-anchor="start" x="52.634" y="-93" font-family="Helvetica,sans-Serif" font-size="10.00" fill="#000000">+I:ICold</text>
<polygon fill="none" stroke="#000000" points="21.5,0 21.5,-80 118.5,-80 118.5,0 21.5,0"/>
<text text-anchor="start" x="36.521" y="-61" font-family="Helvetica,sans-Serif" font-size="10.00" fill="#000000">+ChooseKind()</text>
<text text-anchor="start" x="48.189" y="-37" font-family="Helvetica,sans-Serif" font-size="10.00" fill="#000000">+AddIce()</text>
<text text-anchor="start" x="31.2475" y="-13" font-family="Helvetica,sans-Serif" font-size="10.00" fill="#000000">+UseStraw():bool</text>
</g>
<!-- A2&#45;&gt;A3 -->
<g id="edge3" class="edge">
<title>A2&#45;&gt;A3</title>
<path fill="none" stroke="#000000" d="M125.3394,-105.2949C130.1647,-110.4119 134.8007,-115.6886 139,-121 151.0447,-136.2346 171.4448,-171.1585 190.6901,-205.8333"/>
<polygon fill="none" stroke="#000000" points="127.6476,-102.6485 118.1631,-97.9267 122.633,-107.5325 127.6476,-102.6485"/>
</g>
<!-- A2&#45;&gt;A4 -->
<g id="edge6" class="edge">
<title>A2&#45;&gt;A4</title>
<path fill="none" stroke="#000000" d="M127.9321,-70.4787C147.7952,-75.4006 169.7996,-80.853 188.9477,-85.5977"/>
<polygon fill="none" stroke="#000000" points="128.6202,-67.0435 118.0719,-68.0355 126.9365,-73.838 128.6202,-67.0435"/>
</g>
</g>
</svg>
